<?xml version="1.0" encoding="utf-8"?>
<!-- Generator: Adobe Illustrator 23.0.3, SVG Export Plug-In . SVG Version: 6.00 Build 0)  -->
<svg version="1.1" id="Logo" xmlns="http://www.w3.org/2000/svg" xmlns:xlink="http://www.w3.org/1999/xlink" x="0px" y="0px"
	 viewBox="0 0 315.5 68.9"  xml:space="preserve">
<style type="text/css">
	.st0{opacity:0.7;}
	.st1{fill:#010101;}
	.st2{opacity:0.75;}
	
	.st4{opacity:0.7;fill:#010101;}
</style>
<g id="Layer_1-2">
	<g class="st0">
		<polygon class="st1" points="9.6,13.1 7.2,10.7 7.1,15.6 		"/>
		
			<rect x="3.9" y="7.4" transform="matrix(1.675368e-02 -0.9999 0.9999 1.675368e-02 -0.3492 16.8553)" class="st1" width="9" height="2.4"/>
		<polygon class="st1" points="7.3,4.2 9.8,1.7 9.7,6.6 		"/>
	</g>
	<g class="st0">
		<polygon class="st1" points="5.8,6.1 3.5,4.4 5.8,3.3 		"/>
		<polygon class="st1" points="5.8,6.1 1.6,8.1 0.5,5.9 4.7,3.9 		"/>
		<polygon class="st1" points="0.5,5.9 0.5,8.7 2.8,7.6 		"/>
	</g>
	<g class="st2">
		<polygon class="st1" points="5.8,9.7 3.5,7.8 5.9,6.7 		"/>
		<polygon class="st1" points="5.8,9.7 1.5,11.7 0.5,9.2 4.7,7.2 		"/>
		<polygon class="st1" points="0.5,9.2 0.4,12.2 2.7,11.2 		"/>
	</g>
	<g class="st2">
		<polygon class="st1" points="5.8,13.7 3.6,11.7 5.9,10.6 		"/>
		<polygon class="st1" points="5.8,13.7 1.6,15.6 0.5,13.1 4.8,11.2 		"/>
		<polygon class="st1" points="0.5,13.1 0.4,16.2 2.8,15.1 		"/>
	</g>
	<g class="st0">
		<polygon class="st1" points="35,12.7 32.6,10.2 32.5,15.1 		"/>
		
			<rect x="29.3" y="7" transform="matrix(1.675368e-02 -0.9999 0.9999 1.675368e-02 25.0725 41.8493)" class="st1" width="9" height="2.4"/>
		<polygon class="st1" points="32.7,3.7 35.2,1.3 35.1,6.2 		"/>
	</g>
	<g class="st0">
		<polygon class="st1" points="41.5,3.1 39.2,1.5 41.5,0.3 		"/>
		<polygon class="st1" points="41.5,3.1 37.3,5.2 36.2,3 40.3,0.9 		"/>
		<polygon class="st1" points="36.2,3 36.2,5.7 38.5,4.6 		"/>
	</g>
	<g class="st0">
		<polygon class="st1" points="41.5,6.8 39.3,4.8 41.6,3.7 		"/>
		<polygon class="st1" points="41.5,6.8 37.2,8.7 36.2,6.2 40.4,4.3 		"/>
		<polygon class="st1" points="36.2,6.2 36.1,9.3 38.4,8.2 		"/>
	</g>
	<g class="st2">
		<polygon class="st1" points="41.5,10.7 39.3,8.8 41.6,7.7 		"/>
		<polygon class="st1" points="41.5,10.7 37.2,12.7 36.2,10.2 40.4,8.2 		"/>
		<polygon class="st1" points="36.2,10.2 36.1,13.2 38.4,12.1 		"/>
	</g>
	<g class="st0">
		<path class="st1" d="M12.7,12.2l-0.1-0.1c-0.3-0.3-0.3-0.7-0.1-1l0.9-1.8c0.9-1.8,2.7-2.3,4-1.1l0,0c0.3,0.3,0.3,0.7,0.2,1l-1,2
			C15.7,12.9,14,13.3,12.7,12.2z"/>
		<path class="st1" d="M15.8,10.5c0,0.1,0.1,0.3,0.2,0.3h0.2C17,10.7,17,10,17.6,9c0-0.1,0-0.1,0-0.2l-0.3-8.5c0-0.1,0-0.3-0.2-0.3
			l0,0h-0.3c-0.9,0.1-1.5,0.9-1.4,1.8L15.8,10.5z"/>
		<path class="st1" d="M13.1,10.8L13.1,10.8c0.4-0.1,0.7,0.3,0.8,0.8l0.7,8.7c0.1,0.6-0.3,1.2-0.9,1.4l0,0c-0.4,0-0.8-0.3-0.8-0.9
			l-0.7-8.6C12.1,11.6,12.5,11,13.1,10.8z"/>
	</g>
	<g class="st0">
		<path class="st1" d="M24.8,12.2l-0.1-0.1c-0.3-0.3-0.3-0.7-0.1-1l0.9-1.8c0.9-1.8,2.7-2.3,4.1-1.1l0,0c0.3,0.3,0.3,0.7,0.1,1l-1,2
			C27.8,12.8,26.1,13.3,24.8,12.2z"/>
		<path class="st1" d="M27.9,10.4c0,0.1,0.1,0.2,0.2,0.3l0,0h0.2c0.8-0.1,0.9-0.7,1.4-1.7c0-0.1,0-0.1,0-0.2l-0.3-8.5
			c0-0.2-0.1-0.3-0.2-0.3H29c-0.9,0.1-1.5,0.9-1.4,1.8L27.9,10.4z"/>
		<path class="st1" d="M25.2,10.8L25.2,10.8c0.4-0.1,0.8,0.3,0.8,0.8l0.7,8.7c0.1,0.6-0.3,1.2-0.9,1.4l0,0c-0.4,0.1-0.8-0.3-0.8-0.9
			l-0.7-8.6C24.2,11.6,24.6,11,25.2,10.8z"/>
	</g>
	<g>
		<g class="st3">
			<path class="st1" d="M66.5,52.1c-2.1-1.2-3.8-3-5.1-5.2c-1.2-2.2-1.8-4.8-1.8-7.6s0.6-5.4,1.8-7.7s2.9-4.1,5-5.4s4.6-2,7.3-2
				c2.1,0,4.1,0.5,5.9,1.5s3.2,2.3,4.2,4.1l0.1-0.1v-5.1h4.8v29h-4.6v-5.2H84c-1.1,1.8-2.5,3.2-4.3,4.1c-1.7,1-3.7,1.5-6,1.5
				C71.1,54,68.7,53.4,66.5,52.1z M79.3,48.3c1.5-0.9,2.6-2.1,3.5-3.6c0.9-1.6,1.3-3.3,1.3-5.3s-0.4-3.8-1.2-5.4
				c-0.8-1.6-2-2.9-3.5-3.8s-3.1-1.4-5-1.4c-1.8,0-3.5,0.4-5,1.3s-2.7,2.1-3.6,3.7s-1.3,3.5-1.3,5.6c0,1.9,0.4,3.7,1.2,5.2
				c0.8,1.5,2,2.8,3.5,3.7s3.2,1.3,5.2,1.3C76.2,49.6,77.8,49.2,79.3,48.3z"/>
			<path class="st1" d="M99.5,24.7l8.9,22.8h0.1l8.9-22.8h5.2l-11.8,29h-4.6l-11.8-29H99.5z"/>
		</g>
		<g class="st3">
			<path class="st1" d="M129,45V28.8h-3.7v-4.2h3.7v-9.9l4.8-0.5v10.4h9.6v4.2h-9.6v15.5c0,1.8,0.3,3.1,0.8,4
				c0.5,0.8,1.4,1.2,2.7,1.2c1.5,0,3.1-0.5,4.9-1.5l1.2,4.2c-1,0.6-2,1-3,1.3c-1.1,0.3-2.4,0.5-4,0.5C131.5,54,129,51,129,45z"/>
		</g>
		<g class="st3">
			<path class="st1" d="M153.8,52c-2.3-1.3-4-3.1-5.3-5.3c-1.2-2.2-1.9-4.7-1.9-7.5s0.6-5.3,1.9-7.6c1.2-2.3,3-4,5.3-5.4
				c2.3-1.3,4.9-2,7.8-2c2.8,0,5.4,0.6,7.6,1.9s4.1,3,5.4,5.3c1.3,2.3,1.9,4.8,1.9,7.7s-0.6,5.5-1.9,7.7c-1.3,2.2-3.1,4-5.4,5.2
				s-4.8,1.9-7.6,1.9C158.7,54,156.1,53.3,153.8,52z M166.7,48.3c1.5-0.9,2.7-2.1,3.6-3.7c0.9-1.6,1.3-3.4,1.3-5.4s-0.4-3.8-1.3-5.4
				s-2.1-2.8-3.6-3.7c-1.5-0.9-3.2-1.3-5.1-1.3c-2,0-3.7,0.5-5.3,1.4c-1.5,0.9-2.7,2.2-3.5,3.8c-0.8,1.6-1.2,3.4-1.2,5.3
				c0,1.9,0.4,3.6,1.3,5.2c0.9,1.6,2,2.8,3.6,3.8c1.5,0.9,3.3,1.4,5.2,1.4C163.4,49.6,165.1,49.1,166.7,48.3z"/>
		</g>
		<g class="st3">
			<path class="st1" d="M184.4,45V28.8h-3.7v-4.2h3.7v-9.9l4.8-0.5v10.4h9.6v4.2h-9.6v15.5c0,1.8,0.3,3.1,0.8,4
				c0.5,0.8,1.4,1.2,2.7,1.2c1.5,0,3.1-0.5,4.9-1.5l1.2,4.2c-1,0.6-2,1-3,1.3c-1.1,0.3-2.4,0.5-4,0.5C186.9,54,184.4,51,184.4,45z"
				/>
		</g>
		<g class="st3">
			<path class="st1" d="M222.3,26.1c2.2,1.2,4,2.9,5.3,5.2s2,4.9,2,8c0,2.9-0.5,5.4-1.6,7.6c-1.1,2.2-2.7,4-4.8,5.2
				s-4.6,1.9-7.6,1.9c-2.8,0-5.3-0.6-7.3-1.8c-2.1-1.2-3.6-2.9-4.7-5.1c-1.1-2.1-1.6-4.6-1.6-7.3c0-0.6,0.1-1.3,0.2-2.1h22.6
				c-0.3-2.8-1.4-5-3.3-6.6c-1.9-1.6-4.2-2.4-7-2.4c-2.9,0-5.7,0.8-8.5,2.3l-2-4c3.3-1.8,6.8-2.7,10.7-2.7
				C217.5,24.3,220,24.9,222.3,26.1z M221.7,47.5c1.5-1.4,2.5-3.4,2.9-5.9h-17.8c0.2,2.5,1.1,4.5,2.7,5.9c1.5,1.4,3.6,2.1,6.1,2.1
				C218.1,49.6,220.2,48.9,221.7,47.5z"/>
		</g>
		<g class="st3">
			<path class="st1" d="M241.6,9.9v30.6l0.1,0.1l14.2-15.9h5.8l-10.8,12l10.9,17h-5.5L247.5,40l-5.9,6.4v7.2h-4.8V9.9H241.6z"/>
		</g>
		<g class="st3">
			<path class="st1" d="M284.5,26.1c2.2,1.2,4,2.9,5.3,5.2s2,4.9,2,8c0,2.9-0.5,5.4-1.6,7.6c-1.1,2.2-2.7,4-4.8,5.2
				s-4.6,1.9-7.6,1.9c-2.8,0-5.3-0.6-7.3-1.8c-2.1-1.2-3.6-2.9-4.7-5.1c-1.1-2.1-1.6-4.6-1.6-7.3c0-0.6,0.1-1.3,0.2-2.1H287
				c-0.3-2.8-1.4-5-3.3-6.6s-4.2-2.4-7-2.4c-2.9,0-5.7,0.8-8.5,2.3l-1.9-3.9c3.3-1.8,6.8-2.7,10.7-2.7
				C279.7,24.3,282.2,24.9,284.5,26.1z M283.9,47.5c1.5-1.4,2.5-3.4,2.9-5.9H269c0.2,2.5,1.1,4.5,2.7,5.9c1.5,1.4,3.6,2.1,6.1,2.1
				C280.3,49.6,282.4,48.9,283.9,47.5z"/>
			<path class="st1" d="M303.8,24.7V30h0.1c1.1-1.8,2.4-3.2,4-4.2s3.4-1.5,5.4-1.5c0.5,0,0.9,0,1.2,0.1v5.4l-1.9-0.1
				c-2.7,0-4.8,0.9-6.4,2.8s-2.4,4.3-2.4,7.3v14H299v-29L303.8,24.7L303.8,24.7z"/>
		</g>
	</g>
	<g class="st0">
		<polygon class="st1" points="9.5,25.8 7.1,23.3 7.1,28.2 		"/>
		
			<rect x="3.9" y="20.1" transform="matrix(1.675368e-02 -0.9999 0.9999 1.675368e-02 -13.0319 29.3181)" class="st1" width="9" height="2.4"/>
		<polygon class="st1" points="7.2,16.8 9.7,14.4 9.6,19.3 		"/>
	</g>
	<g class="st0">
		<polygon class="st1" points="9.5,38.2 7.1,35.8 7,40.6 		"/>
		
			<rect x="3.8" y="32.6" transform="matrix(1.999600e-02 -0.9998 0.9998 1.999600e-02 -25.6673 41.4353)" class="st1" width="9" height="2.4"/>
		<polygon class="st1" points="7.2,29.2 9.7,26.8 9.6,31.7 		"/>
	</g>
	<g class="st0">
		<polygon class="st1" points="9.4,50.7 7,48.2 6.9,53.1 		"/>
		
			<rect x="3.8" y="45" transform="matrix(1.675368e-02 -0.9999 0.9999 1.675368e-02 -38.0397 53.6715)" class="st1" width="9" height="2.4"/>
		<polygon class="st1" points="7.1,41.7 9.6,39.3 9.5,44.2 		"/>
	</g>
	<g class="st0">
		<polygon class="st1" points="9.4,63.2 6.9,60.7 6.9,65.6 		"/>
		
			<rect x="3.7" y="57.5" transform="matrix(1.675368e-02 -0.9999 0.9999 1.675368e-02 -50.6532 65.855)" class="st1" width="9" height="2.4"/>
		<polygon class="st1" points="7.1,54.2 9.6,51.8 9.5,56.6 		"/>
	</g>
	<g class="st0">
		<polygon class="st1" points="5.7,18.3 3.4,16.7 5.7,15.5 		"/>
		<polygon class="st1" points="5.7,18.3 1.6,20.4 0.4,18.2 4.6,16.1 		"/>
		<polygon class="st1" points="0.4,18.2 0.4,20.9 2.7,19.8 		"/>
	</g>
	<g class="st0">
		<polygon class="st1" points="5.6,22 3.4,20 5.7,19 		"/>
		<polygon class="st1" points="5.6,22 1.3,23.9 0.3,21.5 4.5,19.5 		"/>
		<polygon class="st1" points="0.3,21.5 0.2,24.5 2.5,23.4 		"/>
	</g>
	<g class="st0">
		<polygon class="st1" points="5.6,25.9 3.3,24 5.7,22.9 		"/>
		<polygon class="st1" points="5.6,25.9 1.3,27.9 0.2,25.4 4.5,23.4 		"/>
		<polygon class="st1" points="0.3,25.4 0.2,28.4 2.5,27.3 		"/>
	</g>
	<g class="st0">
		<polygon class="st1" points="5.7,31.4 3.4,29.8 5.7,28.6 		"/>
		<polygon class="st1" points="5.7,31.4 1.5,33.5 0.4,31.3 4.5,29.2 		"/>
		<polygon class="st1" points="0.4,31.3 0.4,34.1 2.7,32.9 		"/>
	</g>
	<g class="st0">
		<polygon class="st1" points="5.5,35.1 3.3,33.1 5.6,32.1 		"/>
		<polygon class="st1" points="5.5,35.1 1.3,37.1 0.2,34.6 4.5,32.6 		"/>
		<polygon class="st1" points="0.2,34.6 0.1,37.6 2.4,36.5 		"/>
	</g>
	<g class="st0">
		<polygon class="st1" points="5.5,39 3.3,37.1 5.6,36 		"/>
		<polygon class="st1" points="5.5,39 1.2,41 0.2,38.5 4.4,36.5 		"/>
		<polygon class="st1" points="0.2,38.5 0.1,41.5 2.4,40.5 		"/>
	</g>
	<g class="st0">
		<polygon class="st1" points="5.7,43.9 3.5,42.2 5.7,41.1 		"/>
		<polygon class="st1" points="5.7,43.9 1.6,45.9 0.4,43.7 4.6,41.7 		"/>
		<polygon class="st1" points="0.4,43.7 0.4,46.5 2.7,45.4 		"/>
	</g>
	<g class="st0">
		<polygon class="st1" points="5.4,47.6 3.2,45.6 5.5,44.5 		"/>
		<polygon class="st1" points="5.4,47.6 1.2,49.5 0.1,47 4.3,45.1 		"/>
		<polygon class="st1" points="0.1,47 0,50.1 2.3,49 		"/>
	</g>
	<g class="st0">
		<polygon class="st1" points="5.5,51.5 3.2,49.5 5.6,48.5 		"/>
		<polygon class="st1" points="5.5,51.5 1.2,53.5 0.2,51 4.4,49 		"/>
		<polygon class="st1" points="0.2,51 0.1,54 2.4,52.9 		"/>
	</g>
	<g class="st0">
		<polygon class="st1" points="5.7,55.7 3.4,54 5.6,52.9 		"/>
		<polygon class="st1" points="5.7,55.7 1.5,57.8 0.3,55.5 4.5,53.5 		"/>
		<polygon class="st1" points="0.3,55.5 0.4,58.3 2.6,57.2 		"/>
	</g>
	<g class="st0">
		<polygon class="st1" points="5.6,59.4 3.4,57.4 5.7,56.3 		"/>
		<polygon class="st1" points="5.6,59.4 1.4,61.3 0.3,58.8 4.6,56.9 		"/>
		<polygon class="st1" points="0.3,58.8 0.2,61.9 2.5,60.8 		"/>
	</g>
	<g class="st0">
		<polygon class="st1" points="5.4,63.3 3.2,61.3 5.5,60.3 		"/>
		<polygon class="st1" points="5.4,63.3 1.2,65.3 0.1,62.8 4.4,60.8 		"/>
		<polygon class="st1" points="0.1,62.8 0,65.8 2.3,64.7 		"/>
	</g>
	<g class="st0">
		<polygon class="st1" points="35,25.8 32.6,23.3 32.5,28.2 		"/>
		
			<rect x="29.4" y="20.1" transform="matrix(1.675368e-02 -0.9999 0.9999 1.675368e-02 12.054 54.8283)" class="st1" width="9" height="2.4"/>
		<polygon class="st1" points="32.7,16.8 35.2,14.4 35.2,19.3 		"/>
	</g>
	<g class="st0">
		<polygon class="st1" points="35,38.2 32.6,35.8 32.5,40.6 		"/>
		
			<rect x="29.3" y="32.5" transform="matrix(1.675368e-02 -0.9999 0.9999 1.675368e-02 -0.4784 66.9753)" class="st1" width="9" height="2.4"/>
		<polygon class="st1" points="32.7,29.2 35.2,26.8 35.1,31.7 		"/>
	</g>
	<g class="st0">
		<polygon class="st1" points="35,50.7 32.6,48.2 32.5,53.1 		"/>
		
			<rect x="29.4" y="45" transform="matrix(1.675368e-02 -0.9999 0.9999 1.675368e-02 -12.875 79.2644)" class="st1" width="9" height="2.4"/>
		<polygon class="st1" points="32.7,41.7 35.2,39.3 35.1,44.2 		"/>
	</g>
	<g class="st0">
		<polygon class="st1" points="35,63.2 32.7,60.7 32.6,65.6 		"/>
		
			<rect x="29.3" y="57.5" transform="matrix(1.675368e-02 -0.9999 0.9999 1.675368e-02 -25.3895 91.5317)" class="st1" width="9" height="2.4"/>
		<polygon class="st1" points="32.8,54.2 35.2,51.8 35.2,56.6 		"/>
	</g>
	<g class="st0">
		<polygon class="st1" points="41.6,15 39.3,13.4 41.6,12.2 		"/>
		<polygon class="st1" points="41.6,15 37.4,17.1 36.3,14.9 40.4,12.8 		"/>
		<polygon class="st1" points="36.3,14.9 36.3,17.7 38.6,16.5 		"/>
	</g>
	<g class="st0">
		<polygon class="st1" points="41.6,18.7 39.4,16.7 41.7,15.7 		"/>
		<polygon class="st1" points="41.6,18.7 37.3,20.7 36.3,18.2 40.5,16.2 		"/>
		<polygon class="st1" points="36.3,18.2 36.2,21.2 38.5,20.1 		"/>
	</g>
	<g class="st0">
		<polygon class="st1" points="41.6,22.6 39.3,20.7 41.7,19.6 		"/>
		<polygon class="st1" points="41.6,22.6 37.3,24.6 36.3,22.1 40.5,20.1 		"/>
		<polygon class="st1" points="36.3,22.1 36.2,25.1 38.5,24.1 		"/>
	</g>
	<g class="st0">
		<polygon class="st1" points="41.6,28.1 39.3,26.5 41.5,25.4 		"/>
		<polygon class="st1" points="41.6,28.1 37.4,30.2 36.3,28 40.4,25.9 		"/>
		<polygon class="st1" points="36.3,28 36.3,30.8 38.5,29.6 		"/>
	</g>
	<g class="st0">
		<polygon class="st1" points="41.5,31.8 39.3,29.9 41.7,28.8 		"/>
		<polygon class="st1" points="41.5,31.8 37.3,33.8 36.2,31.3 40.5,29.3 		"/>
		<polygon class="st1" points="36.2,31.3 36.2,34.3 38.5,33.2 		"/>
	</g>
	<g class="st0">
		<polygon class="st1" points="41.5,35.8 39.3,33.8 41.7,32.7 		"/>
		<polygon class="st1" points="41.5,35.8 37.3,37.7 36.2,35.2 40.5,33.3 		"/>
		<polygon class="st1" points="36.2,35.2 36.1,38.3 38.5,37.2 		"/>
	</g>
	<g class="st0">
		<polygon class="st1" points="41.5,40.6 39.3,38.9 41.5,37.8 		"/>
		<polygon class="st1" points="41.5,40.6 37.4,42.7 36.2,40.5 40.4,38.4 		"/>
		<polygon class="st1" points="36.2,40.5 36.2,43.2 38.5,42.1 		"/>
	</g>
	<g class="st0">
		<polygon class="st1" points="41.5,44.3 39.3,42.3 41.6,41.2 		"/>
		<polygon class="st1" points="41.5,44.3 37.3,46.2 36.2,43.7 40.5,41.8 		"/>
		<polygon class="st1" points="36.2,43.7 36.1,46.8 38.5,45.7 		"/>
	</g>
	<g class="st0">
		<polygon class="st1" points="41.5,48.2 39.3,46.2 41.6,45.2 		"/>
		<polygon class="st1" points="41.5,48.2 37.3,50.2 36.2,47.7 40.5,45.7 		"/>
		<polygon class="st1" points="36.2,47.7 36.1,50.7 38.4,49.6 		"/>
	</g>
	<g class="st0">
		<polygon class="st1" points="41.5,52.4 39.2,50.7 41.5,49.6 		"/>
		<polygon class="st1" points="41.5,52.4 37.4,54.5 36.2,52.3 40.4,50.2 		"/>
		<polygon class="st1" points="36.2,52.3 36.2,55 38.5,53.9 		"/>
	</g>
	<g class="st0">
		<polygon class="st1" points="41.5,56.1 39.3,54.1 41.6,53 		"/>
		<polygon class="st1" points="41.5,56.1 37.3,58 36.2,55.5 40.5,53.6 		"/>
		<polygon class="st1" points="36.2,55.5 36.1,58.6 38.4,57.5 		"/>
	</g>
	<g class="st0">
		<polygon class="st1" points="41.6,60 39.4,58 41.7,57 		"/>
		<polygon class="st1" points="41.6,60 37.3,62 36.3,59.5 40.5,57.5 		"/>
		<polygon class="st1" points="36.3,59.5 36.2,62.5 38.5,61.4 		"/>
	</g>
	<rect x="10.5" y="0.7" class="st4" width="1" height="65.6"/>
	<g class="st0">
		<path class="st1" d="M12.6,27.1L12.4,27c-0.3-0.3-0.3-0.7-0.1-1l0.9-1.8c0.9-1.8,2.7-2.3,4-1.1l0,0c0.3,0.3,0.3,0.7,0.2,1l-1,2
			C15.6,27.7,13.9,28.2,12.6,27.1z"/>
		<path class="st1" d="M15.6,25.3c0,0.1,0.1,0.3,0.2,0.3H16c0.8-0.1,0.9-0.7,1.4-1.7c0-0.1,0-0.1,0-0.2l-0.3-8.5
			c0-0.1-0.1-0.2-0.2-0.3l0,0h-0.2c-0.9,0.1-1.5,0.9-1.4,1.8L15.6,25.3z"/>
		<path class="st1" d="M13,25.7L13,25.7c0.4-0.1,0.7,0.3,0.8,0.8l0.7,8.7c0.1,0.6-0.3,1.2-0.9,1.4l0,0c-0.4,0.1-0.8-0.3-0.8-0.9
			l-0.7-8.6C12,26.5,12.4,25.9,13,25.7z"/>
	</g>
	<g class="st0">
		<path class="st1" d="M12.5,41.2L12.3,41c-0.3-0.3-0.3-0.7-0.1-1l0.9-1.8c0.9-1.8,2.7-2.3,4.1-1.1l0,0c0.3,0.3,0.3,0.7,0.2,1l-1,2
			C15.5,41.8,13.7,42.3,12.5,41.2z"/>
		<path class="st1" d="M15.5,39.4c0,0.2,0.1,0.3,0.2,0.3H16c0.8-0.1,0.9-0.7,1.4-1.7c0-0.1,0-0.1,0-0.2L17,29.2
			c0-0.1-0.1-0.2-0.2-0.3l0,0h-0.2c-0.9,0.1-1.5,0.9-1.4,1.8L15.5,39.4z"/>
		<path class="st1" d="M12.9,39.7L12.9,39.7c0.4-0.1,0.7,0.3,0.8,0.8l0.7,8.7c0.1,0.6-0.3,1.2-0.9,1.4l0,0c-0.5,0-0.8-0.4-0.8-0.9
			L12,41.2C11.9,40.5,12.3,39.9,12.9,39.7z"/>
	</g>
	<g class="st0">
		<path class="st1" d="M12.4,54.7l-0.1-0.1c-0.3-0.3-0.3-0.7-0.1-1l0.9-1.8c0.9-1.8,2.7-2.3,4-1.1l0,0c0.3,0.3,0.3,0.7,0.2,1l-1,2
			C15.4,55.4,13.6,55.9,12.4,54.7z"/>
		<path class="st1" d="M15.4,53c0,0.2,0.1,0.3,0.2,0.3h0.2c0.8-0.1,0.9-0.7,1.4-1.7c0-0.1,0-0.1,0-0.2l-0.3-8.5
			c0-0.1-0.1-0.2-0.2-0.3l0,0h-0.2c-0.9,0.1-1.5,0.9-1.4,1.8L15.4,53z"/>
		<path class="st1" d="M12.8,53.3L12.8,53.3c0.4-0.1,0.7,0.3,0.8,0.8l0.7,8.7c0.1,0.6-0.3,1.2-0.9,1.4l0,0c-0.4,0.1-0.8-0.3-0.8-0.9
			l-0.7-8.6C11.8,54.1,12.2,53.5,12.8,53.3z"/>
	</g>
	<rect x="17.8" y="0.2" class="st4" width="1" height="64.7"/>
	<rect x="19.8" y="0.9" class="st4" width="2.2" height="64.9"/>
	<rect x="22.9" y="0.2" class="st4" width="1" height="64.7"/>
	<g class="st0">
		<path class="st1" d="M24.8,26.6l-0.1-0.1c-0.3-0.3-0.3-0.7-0.2-1l0.9-1.8c0.9-1.8,2.7-2.3,4.1-1.1l0,0c0.3,0.3,0.3,0.7,0.2,1l-1,2
			C27.8,27.3,26,27.7,24.8,26.6z"/>
		<path class="st1" d="M27.8,24.9c0,0.1,0.1,0.2,0.2,0.3l0,0h0.2c0.8-0.1,0.9-0.7,1.4-1.7c0-0.1,0-0.1,0-0.2l-0.3-8.5
			c0-0.1-0.1-0.3-0.2-0.3h-0.2c-0.9,0.1-1.5,0.9-1.4,1.8L27.8,24.9z"/>
		<path class="st1" d="M25.2,25.2L25.2,25.2c0.4-0.1,0.8,0.3,0.8,0.8l0.7,8.7c0.1,0.6-0.3,1.2-0.9,1.4l0,0c-0.4,0.1-0.8-0.3-0.8-0.9
			l-0.7-8.6C24.2,26,24.6,25.4,25.2,25.2z"/>
	</g>
	<g class="st0">
		<path class="st1" d="M24.8,40.7l-0.1-0.1c-0.3-0.3-0.3-0.7-0.2-1l0.9-1.8c0.9-1.8,2.7-2.3,4.1-1.1l0,0c0.3,0.3,0.3,0.7,0.2,1l-1,2
			C27.8,41.3,26,41.8,24.8,40.7z"/>
		<path class="st1" d="M27.8,39c0,0.1,0.1,0.2,0.2,0.3l0,0h0.2c0.8-0.1,0.9-0.7,1.4-1.7c0-0.1,0-0.1,0-0.2l-0.3-8.5
			c0-0.1-0.1-0.2-0.2-0.3l0,0h-0.2c-0.9,0.1-1.5,0.9-1.4,1.8L27.8,39z"/>
		<path class="st1" d="M25.2,39.3L25.2,39.3c0.4,0,0.8,0.4,0.8,0.8l0.7,8.7c0.1,0.6-0.3,1.2-0.9,1.4l0,0c-0.5,0-0.8-0.4-0.8-0.9
			l-0.7-8.6C24.2,40.1,24.6,39.5,25.2,39.3z"/>
	</g>
	<g class="st0">
		<path class="st1" d="M24.8,54.3l-0.1-0.1c-0.3-0.3-0.3-0.7-0.2-1l0.9-1.8c0.9-1.8,2.7-2.3,4-1.1l0,0c0.3,0.3,0.3,0.7,0.2,1l-1,2
			C27.8,54.9,26,55.4,24.8,54.3z"/>
		<path class="st1" d="M27.8,52.5c0,0.2,0.1,0.3,0.2,0.3h0.2c0.8-0.1,0.9-0.7,1.4-1.7c0-0.1,0-0.1,0-0.2l-0.3-8.5
			c0-0.1-0.1-0.2-0.2-0.3l0,0h-0.2c-0.9,0.1-1.5,0.9-1.4,1.8L27.8,52.5z"/>
		<path class="st1" d="M25.2,52.9L25.2,52.9c0.4-0.1,0.7,0.3,0.8,0.8l0.7,8.7c0.1,0.6-0.3,1.2-0.9,1.4l0,0c-0.4,0.1-0.8-0.3-0.8-0.9
			l-0.7-8.6C24.2,53.7,24.6,53.1,25.2,52.9z"/>
	</g>
	<rect x="30.3" y="0.7" class="st4" width="1" height="65.6"/>
</g>
</svg>
